<svg xmlns="http://www.w3.org/2000/svg" viewBox="0 0 48 48"><defs><style>.cls-1{fill:#9dcc6b;}.cls-2{fill:#b5e08c;}.cls-3{fill:#7c7d7d;}.cls-4{fill:#919191;}.cls-5{fill:#edb996;}.cls-6{fill:#f6ccaf;}</style></defs><title>source of funds</title><g id="source_of_funds" data-name="source of funds"><path class="cls-1" d="M36,4a7.71,7.71,0,0,1-7.71,8H24a7.7,7.7,0,0,1,1.39-4.7C28.05,3.47,31.69,4,36,4Z"/><path class="cls-2" d="M36,4a7.71,7.71,0,0,1-.39,2.7A7.67,7.67,0,0,1,29.29,10H27.4a2.08,2.08,0,0,1-2-2.7C28.05,3.47,31.69,4,36,4Z"/><path class="cls-1" d="M24,8.71c0,.41.64.29-4.29.29A7.71,7.71,0,0,1,12,1.29C12,.88,11.36,1,16.29,1A7.71,7.71,0,0,1,24,8.71Z"/><path class="cls-2" d="M20.6,7c-2.41,0-5.74.25-8.21-3.3A7.42,7.42,0,0,1,12,1.29C12,.88,11.36,1,16.29,1a7.67,7.67,0,0,1,6.32,3.3A2.08,2.08,0,0,1,20.6,7Z"/><path class="cls-3" d="M28.7,26.87c-.45.18-.06.13-8.7.13a2,2,0,0,1,0-4h8A2,2,0,0,1,28.7,26.87Z"/><path class="cls-4" d="M30,25c-8.79,0-8.26.05-8.7-.13A2,2,0,0,1,20,23h8A2,2,0,0,1,30,25Z"/><path class="cls-5" d="M38,40.63A6.36,6.36,0,0,1,31.63,47H16.37a6.38,6.38,0,0,1-5-10.28l8-9.85c.45.18.06.13,8.7.13a1.82,1.82,0,0,0,.7-.13C37.07,37.22,38,37.68,38,40.63Z"/><path class="cls-6" d="M38,40.63A6.34,6.34,0,0,1,36.3,45c-.46,0,.78,0-15.93,0A6.37,6.37,0,0,1,14,38.63c0-3,1.24-3.79,7.58-11.63,6.89,0,6.67.05,7.12-.13C37.07,37.22,38,37.68,38,40.63Z"/><path class="cls-5" d="M30,18.62c0,.59-.18.74-2,4.38H20l-1.83-3.66A1.62,1.62,0,0,1,19.62,17h8.76A1.61,1.61,0,0,1,30,18.62Z"/><path class="cls-6" d="M30,18.62c0,.5-.06.5-1.5,3.38H27.09c-3.77,0-6.69-3.46-6-5h7.25A1.61,1.61,0,0,1,30,18.62Z"/><path d="M37.45,36.1l-7.16-9.19a3,3,0,0,0-.86-4.53l1.29-2.59A2.62,2.62,0,0,0,28.38,16H25V13h3.29A8.72,8.72,0,0,0,37,4a1,1,0,0,0-1-1c-4.51,0-8-.51-11,3.16V1a1,1,0,0,0-2,0V3.16C20-.5,16.39,0,12,0a1,1,0,0,0-1,1,8.72,8.72,0,0,0,8.71,9H23v6H19.62a2.62,2.62,0,0,0-2.34,3.79l1.29,2.59a3,3,0,0,0-.86,4.53L10.55,36.1A7.38,7.38,0,0,0,16.37,48H31.63A7.38,7.38,0,0,0,37.45,36.1ZM19.71,8A6.71,6.71,0,0,1,13,2h3.25A6.71,6.71,0,0,1,23,8ZM20,24h8a1,1,0,0,1,0,2H20A1,1,0,0,1,20,24ZM31.71,5H35a6.71,6.71,0,0,1-6.67,6H25A6.71,6.71,0,0,1,31.71,5ZM19.62,18h8.76a.61.61,0,0,1,.55.89L27.38,22H20.62C18.94,18.65,19,18.83,19,18.62A.62.62,0,0,1,19.62,18Zm12,28H16.37a5.38,5.38,0,0,1-4.24-8.67C20.39,26.73,19.14,28,20,28c8.82,0,8.14,0,8.56-.06C36.15,37.69,37,38.17,37,40.63A5.38,5.38,0,0,1,31.63,46Z"/><path d="M24,34a1,1,0,0,1,1,1,1,1,0,0,0,1,1c1.66,0,1.21-3-1-3.82a1,1,0,1,0-2,0A3,3,0,0,0,24,38a1,1,0,1,1-1,1,1,1,0,0,0-1-1c-1.66,0-1.21,3,1,3.82a1,1,0,1,0,2,0A3,3,0,0,0,24,36,1,1,0,0,1,24,34Z"/></g></svg>